<svg width="250px" height="250px" viewBox="0 0 16 16" xmlns="http://www.w3.org/2000/svg" class="bi bi-book" version="1.1" xmlns:xlink="http://www.w3.org/1999/xlink">
<path d="M1 2.828c0.885 -0.37 2.154 -0.769 3.388 -0.893 1.33 -0.134 2.458 0.063 3.112 0.752v9.746c-0.935 -0.53 -2.12 -0.603 -3.213 -0.493 -1.18 0.12 -2.37 0.461 -3.287 0.811zm7.5 -0.141c0.654 -0.689 1.782 -0.886 3.112 -0.752 1.234 0.124 2.503 0.523 3.388 0.893v9.923c-0.918 -0.35 -2.107 -0.692 -3.287 -0.81 -1.094 -0.111 -2.278 -0.039 -3.213 0.492zM8 1.783c-0.985 -0.847 -2.413 -0.973 -3.713 -0.843 -1.514 0.153 -3.042 0.672 -3.994 1.105A0.5 0.5 0 0 0 0 2.5v11a0.5 0.5 0 0 0 0.707 0.455c0.882 -0.4 2.303 -0.881 3.68 -1.02 1.409 -0.142 2.59 0.087 3.223 0.877a0.5 0.5 0 0 0 0.78 0c0.633 -0.79 1.814 -1.019 3.222 -0.877 1.378 0.139 2.8 0.62 3.681 1.02A0.5 0.5 0 0 0 16 13.5V2.5a0.5 0.5 0 0 0 -0.293 -0.455c-0.952 -0.433 -2.48 -0.952 -3.994 -1.105 -1.3 -0.131 -2.728 -0.004 -3.713 0.843"/>
</svg>