<svg width="250" height="172" viewBox="0 0 250 172" fill="none" xmlns="http://www.w3.org/2000/svg">
<path d="M132.81 150.871C132.74 150.905 132.67 150.939 132.6 150.974L132.81 151.425H133.31V151.189C147.84 144.434 166.12 143.527 183.02 144.967L132.81 150.871ZM15.459 24.8868L15.125 25.0048V25.3588V155.599V156.284L15.778 156.075C30.08 151.489 48.636 147.023 67.027 145.452C84.073 144.011 102.482 144.977 116.97 151.876L117.69 152.217V151.425V23.5088V23.2828L117.52 23.1338C107.14 13.9458 89.326 11.3798 68.52 13.1398C49.186 14.7718 29.315 20.0208 15.459 24.8868ZM132.48 23.1338L132.31 23.2828V23.5088V151.425V152.217L133.03 151.876C147.52 144.964 165.91 144.011 182.97 145.465V145.466C201.36 147.01 219.9 151.489 234.22 156.075L234.88 156.284V155.599V25.3588V25.0048L234.54 24.8868C220.68 20.0208 200.81 14.7718 181.48 13.1398C160.67 11.3798 142.86 13.9458 132.48 23.1338ZM124.71 12.0488L125 12.2598L125.29 12.0488C140.53 1.04178 162.69 -0.640219 182.97 1.07678C206.57 3.08078 230.4 9.87878 245.24 15.5488C246.53 16.0408 247.61 16.8288 248.36 17.8068C249.11 18.7838 249.5 19.9118 249.5 21.0538V165.429C249.5 166.426 249.2 167.412 248.63 168.299C248.05 169.187 247.21 169.948 246.18 170.506C245.15 171.064 243.96 171.398 242.72 171.474C241.49 171.549 240.25 171.362 239.13 170.934C225.33 165.672 203.07 159.345 181.48 157.515C170.45 156.581 160.28 156.865 151.62 158.692C142.96 160.52 135.77 163.898 130.73 169.179C130.05 169.89 129.19 170.47 128.19 170.871C127.2 171.271 126.11 171.48 125 171.48C123.89 171.48 122.8 171.271 121.81 170.871C120.81 170.47 119.95 169.89 119.27 169.179C114.23 163.899 107.04 160.52 98.377 158.692C89.712 156.865 79.543 156.581 68.505 157.515C46.931 159.345 24.682 165.672 10.869 170.934H10.868C9.74698 171.362 8.51198 171.549 7.27698 171.474C6.04298 171.398 4.85502 171.064 3.82202 170.506C2.79002 169.948 1.95102 169.187 1.37402 168.299C0.798023 167.412 0.5 166.426 0.5 165.429V21.0538C0.5 19.9108 0.891991 18.7838 1.64099 17.8068C2.39099 16.8288 3.47002 16.0408 4.75702 15.5488C19.599 9.87878 43.428 3.08078 67.027 1.07678C87.313 -0.627219 109.47 1.04178 124.71 12.0488Z" fill="white"/>
<path d="M132.81 150.871V23.5088M132.81 150.871C132.74 150.905 132.67 150.939 132.6 150.974L132.81 151.425H133.31V151.189C147.84 144.434 166.12 143.527 183.02 144.967L132.81 150.871ZM245.24 15.5488C230.4 9.87878 206.57 3.08078 182.97 1.07678C162.69 -0.640219 140.53 1.04178 125.29 12.0488L125 12.2598L124.71 12.0488C109.47 1.04178 87.313 -0.627219 67.027 1.07678C43.428 3.08078 19.599 9.87878 4.75702 15.5488C3.47002 16.0408 2.39099 16.8288 1.64099 17.8068C0.891991 18.7838 0.5 19.9108 0.5 21.0538V165.429C0.5 166.426 0.798023 167.412 1.37402 168.299C1.95102 169.187 2.79002 169.948 3.82202 170.506C4.85502 171.064 6.04298 171.398 7.27698 171.474C8.51198 171.549 9.74698 171.362 10.868 170.934H10.869C24.682 165.672 46.931 159.345 68.505 157.515M245.24 15.5488L245.42 15.0818M245.24 15.5488C246.53 16.0408 247.61 16.8288 248.36 17.8068C249.11 18.7838 249.5 19.9118 249.5 21.0538V165.429C249.5 166.426 249.2 167.412 248.63 168.299C248.05 169.187 247.21 169.948 246.18 170.506C245.15 171.064 243.96 171.398 242.72 171.474C241.49 171.549 240.25 171.362 239.13 170.934C225.33 165.672 203.07 159.345 181.48 157.515C170.45 156.581 160.28 156.865 151.62 158.692C142.96 160.52 135.77 163.898 130.73 169.179C130.05 169.89 129.19 170.47 128.19 170.871C127.2 171.271 126.11 171.48 125 171.48C123.89 171.48 122.8 171.271 121.81 170.871C120.81 170.47 119.95 169.89 119.27 169.179C114.23 163.899 107.04 160.52 98.377 158.692C89.712 156.865 79.543 156.581 68.505 157.515M68.505 157.515L68.547 158.014M15.459 24.8868L15.125 25.0048V25.3588V155.599V156.284L15.778 156.075C30.08 151.489 48.636 147.023 67.027 145.452C84.073 144.011 102.482 144.977 116.97 151.876L117.69 152.217V151.425V23.5088V23.2828L117.52 23.1338C107.14 13.9458 89.326 11.3798 68.52 13.1398C49.186 14.7718 29.315 20.0208 15.459 24.8868ZM132.48 23.1338L132.31 23.2828V23.5088V151.425V152.217L133.03 151.876C147.52 144.964 165.91 144.011 182.97 145.465V145.466C201.36 147.01 219.9 151.489 234.22 156.075L234.88 156.284V155.599V25.3588V25.0048L234.54 24.8868C220.68 20.0208 200.81 14.7718 181.48 13.1398C160.67 11.3798 142.86 13.9458 132.48 23.1338Z" stroke="#333746"/>
</svg>
