<svg width="39" height="38" viewBox="0 0 39 38" fill="none" xmlns="http://www.w3.org/2000/svg">
<path d="M24.9958 33.064C30.1568 33.064 34.3398 28.988 34.3398 23.9596C34.3398 18.9315 30.1568 14.8555 24.9958 14.8555C19.8358 14.8555 15.6519 18.9315 15.6519 23.9596C15.6519 28.988 19.8358 33.064 24.9958 33.064Z" stroke="white" stroke-width="2" stroke-miterlimit="10"/>
<path d="M31.4341 30.6289L38.2091 37.2309" stroke="white" stroke-width="2" stroke-linecap="round" stroke-linejoin="round"/>
<path d="M17.4649 33.251C14.1709 33.251 10.9499 32.299 8.21086 30.516C5.47186 28.733 3.33685 26.1983 2.07585 23.2328C0.815847 20.2673 0.485856 17.0041 1.12886 13.856C1.77086 10.7078 3.35787 7.81611 5.68687 5.54641C8.01687 3.27671 10.9839 1.73101 14.2149 1.10481C17.4459 0.47861 20.7948 0.80001 23.8388 2.02831C26.8818 3.25671 29.4839 5.33681 31.3139 8.00571C33.1439 10.6746 34.1209 13.8123 34.1209 17.0221" stroke="white" stroke-width="2" stroke-linecap="round" stroke-linejoin="round"/>
<path d="M17.4648 0.792969V14.5482" stroke="white" stroke-width="2" stroke-miterlimit="10" stroke-linecap="round"/>
<path d="M13.598 25.2695C10.449 25.4257 7.33798 26.0115 4.35498 27.0096" stroke="white" stroke-width="2" stroke-linecap="round" stroke-linejoin="round"/>
<path d="M4.35498 7.03516C7.40398 8.17336 12.137 8.90765 17.466 8.90765C22.795 8.90765 27.528 8.17336 30.577 7.03516" stroke="white" stroke-width="2" stroke-miterlimit="10"/>
<path d="M27.0631 12.4794C25.8531 5.72727 22.0152 0.792969 17.4662 0.792969C11.9472 0.792969 7.47314 8.05897 7.47314 17.0221C7.47314 25.9853 11.9472 33.251 17.4662 33.251" stroke="white" stroke-width="2" stroke-linecap="round" stroke-linejoin="round"/>
<path d="M15.2361 17.0234H0.664062" stroke="white" stroke-width="2" stroke-linecap="round" stroke-linejoin="round"/>
</svg>
